<svg id="Layer_1" data-name="Layer 1" xmlns="http://www.w3.org/2000/svg" viewBox="0 0 74.33 24.7"><defs><style>.cls-1{fill:#f4f4f4;}</style></defs><path class="cls-1" d="M663.16,68.31a6.39,6.39,0,0,1-5.84-3.73,5.08,5.08,0,0,0-9.2,0,6.39,6.39,0,0,1-5.84,3.73h0a6.37,6.37,0,0,1-5.84-3.73,5.08,5.08,0,0,0-9.21,0,6.44,6.44,0,0,1-11.68,0,5.08,5.08,0,0,0-9.2,0L605.11,64a6.44,6.44,0,0,1,11.68,0A5.08,5.08,0,0,0,626,64a6.44,6.44,0,0,1,11.68,0,5,5,0,0,0,4.6,2.93h0a5,5,0,0,0,4.6-2.93,6.44,6.44,0,0,1,11.68,0,5.08,5.08,0,0,0,9.2,0,6.44,6.44,0,0,1,11.68,0l-1.23.57a5.08,5.08,0,0,0-9.21,0A6.37,6.37,0,0,1,663.16,68.31Z" transform="translate(-605.11 -43.61)"/><path class="cls-1" d="M663.16,51.65a6.39,6.39,0,0,1-5.84-3.73,5.07,5.07,0,0,0-9.2,0,6.39,6.39,0,0,1-5.84,3.73h0a6.37,6.37,0,0,1-5.84-3.73,5.08,5.08,0,0,0-9.21,0,6.44,6.44,0,0,1-11.68,0,5.07,5.07,0,0,0-9.2,0l-1.24-.58a6.44,6.44,0,0,1,11.68,0,5.08,5.08,0,0,0,9.21,0,6.44,6.44,0,0,1,11.68,0,5,5,0,0,0,4.6,2.94h0a5,5,0,0,0,4.6-2.94,6.44,6.44,0,0,1,11.68,0,5.07,5.07,0,0,0,9.2,0,6.44,6.44,0,0,1,11.68,0l-1.23.58a5.08,5.08,0,0,0-9.21,0A6.37,6.37,0,0,1,663.16,51.65Z" transform="translate(-605.11 -43.61)"/></svg>